<svg width="18" height="16" viewBox="0 0 18 16" fill="none" xmlns="http://www.w3.org/2000/svg">
<path fill-rule="evenodd" clip-rule="evenodd" d="M16.7458 5.8322L11.418 5.05813L9.0363 0.230426C8.9685 0.115117 8.84472 0.0443115 8.71096 0.0443115C8.57719 0.0443115 8.45342 0.115117 8.38561 0.230426L6.00279 5.05704L0.673557 5.8322C0.536853 5.85193 0.423202 5.94756 0.38038 6.07887C0.337558 6.21018 0.372991 6.35442 0.471783 6.45095L4.32799 10.2092L3.41783 15.5155C3.3946 15.6516 3.45055 15.789 3.56218 15.8702C3.67381 15.9513 3.82181 15.9621 3.94404 15.898L8.70969 13.3929L13.4753 15.897C13.5976 15.961 13.7456 15.9502 13.8572 15.8691C13.9688 15.7879 14.0248 15.6505 14.0015 15.5145L13.0914 10.2092L16.9476 6.45095C17.0464 6.35447 17.0818 6.2103 17.0391 6.07901C16.9964 5.94771 16.8828 5.85205 16.7462 5.8322H16.7458Z" fill="#F5A623"/>
</svg>
